/* XPM */
/* Drawn  by Stephan Kanthak for the K Desktop Environment */
/* See http://www.kde.org */
static char*kppp[]={
"32 32 9 1",
"c c #ffffff",
"# c #000000",
"a c #c0c0ff",
"b c #008000",
"d c #585858",
"e c #808080",
"f c #c0c0c0",
"g c #ff0000",
". c None",
"............#######.............",
"..........##aaaaaaa##...........",
".........#baaccaabbbd#..........",
"........#baccababbbbbd#.........",
".......#bbccabbabaabbbd#........",
"......#bbcccaaabbbbbbbbd#.......",
"......#baccaabbbbbbbbbbd#.......",
".....#bbacaaabbbbbbabbbbd#......",
".....#abcaaaabbaaabbaabbd#......",
".....#abcaaaaaaaabbaaabbd#......",
".....#aacaaaabbbaaaabbbbd#......",
".....#aaaaaabbbbbbbbbbabe#......",
".....#bbaaaabbbbbb###babe#......",
".....#bbbaaabbbb##ccf##ae#......",
".....#bbbaaaab##ccfffff##.......",
"......#bbaaa##ccfffffffff##.....",
"......#baa##ccfffffffffffff##...",
".......###ccfffffffffffffffff#..",
"......##ccfffffffffffffffffffe#.",
"....##ccfffffffffffffffffffefe#.",
"..##ccfffffffffffffffffffefeee#.",
".#feeefcfffffffffffffffefeeeee#.",
"..#fffeefcfffffffffffefeeeeeee#.",
"..#ffgffeefcfffffffefeeeeeeee##.",
"..#ffgfgffeefcfffefeeeeeeee##...",
"..##fffgfgffeecefeeeeeeee##.....",
"....##fffgfgffeeeeeeeee##.......",
"......##fffgfgffeeeee##.........",
"........##fffgfeeee##...........",
"..........##fffee##.............",
"............##f##...............",
"..............#................."};

