/* XPM */
static char *magick[] = {
/* columns rows colors chars-per-pixel */
"16 16 6 1",
"  c #000000",
". c #303030",
"X c #595959",
"o c #a0a0a4",
"O c #c0c0c0",
"+ c None",
/* pixels */
"++++++++++++++++",
"++++++++++++++++",
"++++++++++++++++",
"++++++++++++++++",
"+++++++oo. +++++",
"+++++oOOOoO. +++",
"+++oOOOoOOOOO. +",
"+oOOOoOOOOOOoOO.",
"+  oOOOOOOoOOoX.",
"+    OOOoOOoXXo+",
"++     OOoXXo+++",
"++++    XXo+++++",
"++++++  o+++++++",
"++++++++++++++++",
"++++++++++++++++",
"++++++++++++++++"
};
