/* XPM */
static char * knu_xpm[] = {
"32 32 11 1",
" 	c None",
".	c #9090bb",
"X	c black",
"o	c blue",
"O	c ivory",
"+	c yellow",
"@	c cyan",
"#	c lightGrey",
"$	c grey",
"%	c red",
"&	c brown",
" ..........         ...X        ",
" .oooooooo.X      ..XXXOXXX     ",
" .o++ooooo.X     .XXO@O@O@OXX   ",
" .oooooooo.X    .X@O@O@O@O@O@X  ",
" .oooooooo.X    .XO@O@O@O@O@OX  ",
" .oooooooo.X   .XO@O@O@O@O@O@OX ",
" .oooooooo.X   .X@O@O@O@O@O@O@X ",
" ..........XX  .XO@O@O@O@O@O@OX ",
".XXXXXXXXXX.X .XO@O@O@O@O@O@O@OX",
".##########.X  .XO@O@O@O@O@O@OX$",
".#%####XXX#.X  .X@O@O@O@O@O@O@X$",
"............X  .XX@O@O@O@O@O@XXX",
" XXXXXXXXXXX    .XO@O@O@O@O@OX  ",
"     .X         .X@O@O@O@O@O@X  ",
"     .X         .XXXO@O@O@XXX   ",
"     .X        .XoXXXXXOXXX     ",
"$$$$$$$X$$$$$$.XooooX .X....    ",
"$$$$$&&X$$$$$$.ooooX  .###%.X   ",
"XXXX$$&XXXXXX.XooooX  .####.X   ",
"    XXXX    .XooooX   .XXXX.X   ",
"           .XooooX    .####.X   ",
"          .XooooX     .XXXX.X   ",
"          .XooooX     .####.X   ",
"         .XooooX      .XXXX.X   ",
"        .XooooX       .####.X   ",
"        XoooooX       .####.X   ",
"        XooooX        .####.X   ",
"         XooX         .####.X   ",
"          XX          .####.X   ",
"                      .####.X   ",
"                      ......X   ",
"                       XXXXXX   "};
