/* XPM */
static char * modem_xpm[] = {
/* Copyright (C) 1997 Jonathan Buzzard. Licensed under the terms of the GNU library General Public License */
"32 32 8 1",
" 	c None",
".	c black",
"X	c #999999",
"o	c #333333",
"O	c #cccccc",
"+	c #666666",
"@	c red",
"#	c green",
"                                ",
"                                ",
"                                ",
"                                ",
"                                ",
"                                ",
"                                ",
"                                ",
"                                ",
"                                ",
"                                ",
"                                ",
"                ...             ",
"              XXXoo..           ",
"            XXOOOOOoo..         ",
"          XXOOOOOXXOOoo..       ",
"        XXOOOOOXXOOOOOOoo..     ",
"      XXOOOOOXXOOOOOOOOOOoo..   ",
"    XXOOOOOXXOOOOOOOOOOOOXXoo.. ",
"  XXOOOOOXXOOOOOOOOOOOOXXOOOOoo.",
" ...OOOXXOOOOOOOOOOOOXXOOOOOXXo.",
" .....XOOOOOOOOOOOOXXOOOOOXX++o.",
" ..@....OOOOOOOOOXXOOOOOXX++++XX",
" ..@.@....OOOOOXXOOOOOXX++++XX  ",
"  ...@.#....OOXOOOOOXX++++XX    ",
"    ...#.#....OOOOXX++++XX      ",
"      ...#.#....XX++++XX        ",
"        ...#....++++XX          ",
"          ......++XX            ",
"            ....XX              ",
"              ..                ",
"                                "};
