/* XPM */
static char *magick[] = {
/* columns rows colors chars-per-pixel */
"156 67 6 1",
"  c #000000",
". c #595959",
"X c #ffff00",
"o c #a0a0a4",
"O c #ffffff",
"+ c None",
/* pixels */
"++++++++++++++++++++++++++++++++++++++++++++++++++++++++++++++++++++++++++++++++++++++++++++++++++++++++++++++++++++++++++++++++++++++++++++++++++++++++++++",
"++++++++++++++++++++++++++++++++++++++++++++++++++++++++++++++++++++++++++++++++++++++++++++++++++++++++++++++++++++++++++++++++++++++++++++++++++++++++++++",
"+++++++++++++++++++++++++++++++++++++++++++++++++++++++++++++++++++++++++++++++++++.....++++++++++++++++++++++++++++++++++++++++++++++++++++++++++++++++++++",
"++++++++++++++++++++++++++++++++++++++++++++++++++++++++++++++++++++++++++++++++...OOOoo..++++++++++++++++++++++++++++++++++++++++++++++++++++++++++++++++++",
"+++++++++++++++++++++++++++++++++++++++++++++++++++++++++++++++++++++++++++++...OOOooooooo..+++++++++++++++++++++++++++++++++++++++++++............+++++++++",
"++++++++++++++++++++++++++++++++++++++++++++++++++++++++++++++++++++++++++...OOOoooooooooooo..++++++++++++++++++++++++++++++++++++++...OOOOOOOOOOOO...++++++",
"+++++++++++++++++++++++++++++++++++++++++++++++++++++++++++++++++++++++...OOOoooOOoooooooooooo..+++++++++++++++++++++++++++++++++...OOOooooooooooooOOO..++++",
"++++++++++++++++++++++++++++++++++++++++++++++++++++++++++++++++++++...OOOoooOOO...ooooooooooooo..++++++++++++++...+++++++++++...OOOooo............+++++++++",
"+++++++++++++++++++++++++++++++++++++++++++++++++++++++++++++++++...OOOoooOOO...oooooooooooooooooo..+++++++++....o...++++++...OOOooo...++++++++++++...++++.+",
"++++++++++++++++++++++++++++++++++++++++++++++++++++++++++++++...OOOoooOOO...oooooooooOOoooooooooooo..++++....o.o.o.o..+...OOOoooo..++++++++++++++++++..++++",
"+++++++++++++++++++++++++++++++++++++++++++++++++++++++++++...OOOoooOOO...oooooooooOOO...ooooooooooooo.....o.o.o.o.o.o...OOoooo..+++++++++++++++++++++++++++",
"++++++++++++++++++++++++++++++++++++++++++++++++++++++++...OOOoooOOO...oooooooooOOO...oooooooooooooooooo..o.o.o.o.o.o.o.o..oo..+++++++++++++++++++++++++++.+",
"+++++++++++++++++++++++++++++++++++++++++++++++++++++...OOOoooOOO...oooooooooOOO...oooooooooOOoooooooooooo...o.o.o.o.o.o.o...+++++++++++++++++++++++++++++++",
"++++++++++++++++++++++++++++++++++++++++++++++++++...OOOoooOOO...oooooooooOOO...oooooooooOOO...ooooooooooooo..o.o.o.o.o.o.o.o..+++++++++++++++++++++++++++++",
"+++++++++++++++++++++++++++++++++++++++++++++++...OOOoooOOO...oooooooooOOO...oooooooooOOO...oooooooooooooooooo...o.o.o.o.o.o.o...+++++++++++++++++++++++++++",
"++++++++++++++++++++++++++++++++++++++++++++...OOOoooooo...oooooooooOOO...oooooooooOOO...oooooooooOOoooooooooooo..o.o.o.o.o.o.o.o...++++++++++++++++++++++++",
"+++++++++++++++++++++++++++++++++++++++++...OOOooooooooooooooooooOOO...oooooooooOOO...oooooooooOOO...ooooooooooooo...o.o.o.o.o.o.o.o..++++++++++++++++++++++",
"++++++++++++++++++++++++++++++++++++++...OOOooooooooooooooooooOOO...oooooooooOOO...oooooooooOOO...oooooooooooooooooo..o.o.o.o.o.o.ooo.++++++++++++++++++++++",
"+++++++++++++++++++++++++++++++++++...OOOooooooooooooooooooooo...oooooooooOOO...oooooooooOOO...oooooooooOooooooooooooo...o.o.o.ooo....++++++++++++++++++++++",
"++++++++++++++++++++++++++++++++...OOOoooooooooooooooooooooooooooooooooOOO...oooooooooOOO...oooooooooOOO...ooooooooooooo..o.ooo.......++++++++++++++++++++++",
"+++++++++++++++++++++++++++++...OOOoooooooooooooooooooooooooooooooooOOO...oooooooooOOO...oooooooooOOO...oooooooooooooooooo.o..........++++++++++++++++++++++",
"++++++++++++++++++++++++++...OOOoooooooooooooooooooooooooooooooooooo...oooooooooOOO...oooooooooOOO...oooooooooOOoooooooooooo..........++++++++++++++++++++++",
"+++++++++++++++++++++++...OOOooooooooooooooooooooooooooooooooooooooooooooooooOOO...oooooooooOOO...oooooooooOOO...ooooooooooooo........++++++++++++++++++++++",
"++++++++++++++++++++...OOOooooooooooooooooooooooooooooooooooooooooooooooooOOO...oooooooooOOO...oooooooooOOO...oooooooooooooooooo...+++++++++++++++++++++++++",
"+++++++++++++++++...OOOooooooooooooooooooooooooooooooooooooooooooooooooooo...oooooooooOOO...oooooooooOOO...oooooooooOOoooooooooooo++++++++++++++++++++++++++",
"++++++++++++++...OOOoooooooooooooooooooooooooooooooooooooooooooooooooooooooooooooooOOO...oooooooooOOO...oooooooooOOO...oooooooooOOO.++++++++++++++++++++++++",
"+++++++++++...OOO..oooooooooooooooooooooooooooooooooooooooooooooooooooooooooooooOOO...oooooooooOOO...oooooooooOOO...oooooooooOOOoooo++++++++++++++++++++++++",
"++++++++...OOOoooOO..ooooooooooooooooooooooooooooooooooooooooooooooooooooooooooo...oooooooooOOO...oooooooooOOO...oooooooooOOOoooooo.++++++++++++++++++++++++",
"++++++..OOOooooooooOO..ooooooooooooooooooooooooooooooooooooooooooooooooooooooooooooooooooOOO...oooooooooOOO...oooooooooOOOoooooo....++++++++++++++++++++++++",
"+++++.OOoooooooooooooOO..oooooooooooooooooooooooooooooooooooooooooooooooooooooooooooooOOO...oooooooooOOO...oooooooooOOOoooooo.......++++++++++++++++++++++++",
"++++.OooOOoooooooooooooOO..ooooooooooooooooooooooooooooooooooooooooooooooooooooooooooo...oooooooooOOO...oooooooooOOOoooooo..........++++++++++++++++++++++++",
"++++.OooooOOoooooooooooooOO..ooooooooooooooooooooooooooooooooooooooooooooooooooooooooooooooooooOOO...oooooooooOOOoooooo.............++++++++++++++++++++++++",
"++++.OooooooOOoooooooooooooOO..oooooooooooooooooooooooooooooooooooooooooooooooooooooooooooooOOO...oooooooooOOOoooooo................++++++++++++++++++++++++",
"++++.OooooooooOOoooooooooooooOO..ooooooooooooooooooooooooooooooooooooooooooooooooooooooooooo...oooooooooOOOoooooo................ooo++++++++++++++++++++++++",
"++++.OooooooooooOOoooooooooooooOO..ooooooooooooooooooooooooooooooooooooooooooooooooooooooooooooooooooOOOoooooo................ooo...++++++++++++++++++++++++",
"++++.OooooooooooooOOoooooooooooooOO..oooooooooooooooooooooooooooooooooooooooooooooooooooooooooooooOOOoooooo................ooo......++++++++++++++++++++++++",
"++++.OooooooooooooooOOoooooooooooooOO..ooooooooooooooooooooooooooooooooooooooooooooooooooooooooOOOoooooo................ooo.........++++++++++++++++++++++++",
"++++.OooooooooooooooOoOOoooooooooooooOO..oooooooooooooooooooooooooooooooooooooooooooooooooooOOOoooooo................ooo............++++++++++++++++++++++++",
"++++.OoooooooooooooooOooOOoooooooooooooOO..ooooooooooooooooooooooooooooooooooooooooooooooOOOoooooo................ooo.............++++++++++++++++++++++++++",
"++++.OoooooooooooooooOooOoOOoooooooooooooOO..oooooooooooooooooooooooooooooooooooooooooOOOoooooo................ooo.............+++++++++++++++++++++++++++++",
"++++.OooooooooooooooooOooOooOOoooooooooooooOO..ooooooooooooooooooooooooooooooooooooOOOoooooo................ooo.............++++++++++++++++++++++++++++++++",
"+++++.ooooooooooooooooOooOooOoOOoooooooooooooOO..oooooooooooooooooooooooooooooooOOOoooooo................ooo.............+++++++++++++++++++++++++++++++++++",
"+++++...oooooooooooooooOooOooOooOOoooooooooooooOO..ooooooooooooooooooooooooooOOOoooooo................ooo.............++++++++++++++++++++++++++++++++++++++",
"++++++++..oooooooooooooOooOooOooOoOOoooooooooooooOO..oooooooooooooooooooooOOOoooooo................ooo.............+++++++++++++++++++++++++++++++++++++++++",
"++++++++++..ooooooooooooOooOooOooOooOOoooooooooooooOO..ooooooooooooooooOOOoooooo................ooo.............++++++++++++++++++++++++++++++++++++++++++++",
"++++++++++++..ooooooooooOooOooOooOooOoOOoooooooooooooOO..oooooooooooOOOoooooo................ooo.............+++++++++++++++++++++++++++++++++++++++++++++++",
"++++++++++++++..ooooooooooooOooOooOooOooOOoooooooooooooOO..ooooooOOOoooooo................ooo.............++++++++++++++++++++++++++++++++++++++++++++++++++",
"++++++++++++++++..oooooooooooXX.ooOooOooOoOOoooooooooooooOO..oOOOoooooo................ooo.............+++++++++++++++++++++++++++++++++++++++++++++++++++++",
"++++++++++++++++++..ooooooooXXXXoooOooOooOooOOoooooooooooooOO.oooooo................ooo.............++++++++++++++++++++++++++++++++++++++++++++++++++++++++",
"++++++++++++++++++++..ooooooXXXXoooOooOooOooOoOOooooooooOOOooO+oo................ooo.............+++++++++++++++++++++++++++++++++++++++++++++++++++++++++++",
"++++++++++++++++++++++..oooooXX.ooooOooOooOooOooOOoooOOOoooooO+...............ooo.............++++++++++++++++++++++++++++++++++++++++++++++++++++++++++++++",
"++++++++++++++++++++++++..ooooooooooOooOooOooOooooOOOoooooo..o+............ooo.............+++++++++++++++++++++++++++++++++++++++++++++++++++++++++++++++++",
"++++++++++++++++++++++++++..ooooooooooooOooOooOoooooOooo.....o+.........ooo.............++++++++++++++++++++++++++++++++++++++++++++++++++++++++++++++++++++",
"++++++++++++++++++++++++++++..ooooooooooOooOooOooooooO.......o+......ooo.............+++++++++++++++++++++++++++++++++++++++++++++++++++++++++++++++++++++++",
"++++++++++++++++++++++++++++++..ooooooooooooOooOooooo........o+...ooo.............++++++++++++++++++++++++++++++++++++++++++++++++++++++++++++++++++++++++++",
"++++++++++++++++++++++++++++++++..oooooooooooXX.ooooo........o+ooo.............+++++++++++++++++++++++++++++++++++++++++++++++++++++++++++++++++++++++++++++",
"++++++++++++++++++++++++++++++++++..ooooooooXXXXooooo........o+.............++++++++++++++++++++++++++++++++++++++++++++++++++++++++++++++++++++++++++++++++",
"++++++++++++++++++++++++++++++++++++..ooooooXXXXooooo........o+..........+++++++++++++++++++++++++++++++++++++++++++++++++++++++++++++++++++++++++++++++++++",
"++++++++++++++++++++++++++++++++++++++..oooooXX.ooooo........o+.......++++++++++++++++++++++++++++++++++++++++++++++++++++++++++++++++++++++++++++++++++++++",
"++++++++++++++++++++++++++++++++++++++++..ooooooooooo........o+....+++++++++++++++++++++++++++++++++++++++++++++++++++++++++++++++++++++++++++++++++++++++++",
"++++++++++++++++++++++++++++++++++++++++++..ooooooooo........o+.++++++++++++++++++++++++++++++++++++++++++++++++++++++++++++++++++++++++++++++++++++++++++++",
"++++++++++++++++++++++++++++++++++++++++++++..ooooooo........+++++++++++++++++++++++++++++++++++++++++++++++++++++++++++++++++++++++++++++++++++++++++++++++",
"++++++++++++++++++++++++++++++++++++++++++++++..ooooo.....++++++++++++++++++++++++++++++++++++++++++++++++++++++++++++++++++++++++++++++++++++++++++++++++++",
"++++++++++++++++++++++++++++++++++++++++++++++++..oo...+++++++++++++++++++++++++++++++++++++++++++++++++++++++++++++++++++++++++++++++++++++++++++++++++++++",
"++++++++++++++++++++++++++++++++++++++++++++++++++..++++++++++++++++++++++++++++++++++++++++++++++++++++++++++++++++++++++++++++++++++++++++++++++++++++++++",
"++++++++++++++++++++++++++++++++++++++++++++++++++++++++++++++++++++++++++++++++++++++++++++++++++++++++++++++++++++++++++++++++++++++++++++++++++++++++++++",
"++++++++++++++++++++++++++++++++++++++++++++++++++++++++++++++++++++++++++++++++++++++++++++++++++++++++++++++++++++++++++++++++++++++++++++++++++++++++++++"
};
