/* XPM */
/* Drawn  by Stephan Kanthak for the K Desktop Environment */
/* See http://www.kde.org */
static char*korn[]={
"32 32 10 1",
"c c #ffffff",
"# c #000000",
"a c #c0c0c0",
"b c #a0a0a4",
"d c #ffc0c0",
"e c #ff0000",
"f c #c00000",
"g c #585858",
"h c #808080",
". c None",
"................................",
"................................",
".......######...................",
".....##aaaabb##.................",
"....#cacaaaaabb##...............",
"...#ccccacaaaaabd##.............",
"..#accccccacaaaeedd##...........",
"..#acaccccccacaeeeedb##.........",
".#aaaacaccccccaeeeefabb##.......",
".#aaaaaacaccccceeeefaaabb##.....",
".#aaaaaaaacaccccaeefaaaaabb##...",
".#aaaaaaaaaacacccaefacaaagggg##.",
".#aaaaaaaaaaaacaaaefcacchbgggg#.",
".#aaaaaaaaaaaaaaaaefacchbbbgggg#",
".#aaaaaaaaaaaaaabbefacbbbbabagg#",
".#aaaaaaaaaaaaaabbefachbbabhhcc#",
".#aaaaaaaaaaaaaabbefbahbabhghca#",
".#aaaaaaaaaaaaaaabefbababahhcc##",
".#aaaaaaaaaaaaaaaaefbaabaaccca##",
".##aaaaaaaaaaaaaaaefbabhhaccc#g#",
"...##aaaaaaaaaaaaaefbahbahcca#g#",
".....##aaaaaaaaaaaefbabhhcccg#g#",
".......##aaaaaaaaaefbahacaca##g#",
".........##aaaaaaaefbaabbccgggg#",
"...........##aaaaaebbahcccagggg#",
".............##aaabbbahhhcghh##.",
"...............##aabbahhhhh##...",
".................##aaahhh##.....",
"...................##aa##.......",
".....................##.........",
"................................",
"................................"};

