/* XPM */
static char *magick[] = {
/* columns rows colors chars-per-pixel */
"32 32 4 1",
"  c Black",
". c #0000f8",
"X c None",
"o c #f8fcf8",
/* pixels */
"XXXXXXXXXXXXXXXXXXXXXXXXXXXXXXXX",
"XXXXXXXXXXXXXXXXXXXXXXXXXXXXXXXX",
"XXXXXXXXXXXXXXXXXXXXXXXXXXXXXXXX",
"XXXXXXXXXXXXXXXXXXXXXXXXXXXXXXXX",
"X                              X",
"X  oooooooooooooooooooooooooo  X",
"X o oooooooooooooooooooooooo o X",
"X oo oo............oooooooo oo X",
"X ooo o............ooooooo ooo X",
"X oooo o..oooooooo.oooooo oooo X",
"X ooooo o..ooooooooooooo ooooo X",
"X oooooo o..ooooooooooo oooooo X",
"X ooooooo o..ooooooooo ooooooo X",
"X oooooooo o..ooooooo oooooooo X",
"X ooooooooo o..ooooo ooooooooo X",
"X oooooooooo o..ooo oooooooooo X",
"X ooooooooooo ..oo ooooooooooo X",
"X oooooooooo.. oo oooooooooooo X",
"X ooooooooo..oo  ooooooooooooo X",
"X oooooooo..oooooooooooooooooo X",
"X ooooooo..ooooooooooooooooooo X",
"X oooooo..oooooooo.ooooooooooo X",
"X ooooo............ooooooooooo X",
"X ooooo............ooooooooooo X",
"X oooooooooooooooooooooooooooo X",
"X oooooooooooooooooooooooooooo X",
"X                              X",
"XXXXXXXXXXXXXXXXXXXXXXXXXXXXXXXX",
"XXXXXXXXXXXXXXXXXXXXXXXXXXXXXXXX",
"XXXXXXXXXXXXXXXXXXXXXXXXXXXXXXXX",
"XXXXXXXXXXXXXXXXXXXXXXXXXXXXXXXX",
"XXXXXXXXXXXXXXXXXXXXXXXXXXXXXXXX"
};
