/* XPM */
static char * kbiff_xpm[] = {
"32 32 5 1",
" 	c None",
".	c #000000000000",
"X	c #00000000C0C0",
"o	c #00000000FFFF",
"O	c #FFFFFFFFFFFF",
"                                ",
"     .......................    ",
"    .XXXX.oooooooooooooooooo.   ",
"   .XXXXX.o................o..  ",
"  .XXXXXXX.o................oo. ",
"  .XXXXXXX.oo...............oo. ",
"  .XXXXXXXX.o................oo.",
"  .XXXXXXXX.o................oo.",
"  .XXXXXXXX.oo..............ooo.",
"  .XXXXXXXX.ooooooooooooooooooo.",
"  .XXXXXXXX.ooooooooooooooooooo.",
"  .XXXXXXXX.ooooooooooooooooooo.",
"  .XXXXXXXX.ooooooooooooooooooo.",
"  .XXXXXXXX.oooooOOOOOOOOOOOooo.",
"  .XXXXXXXX.oooooOOOOXXXXXXOooo.",
"  .XXXXXXXX.ooooOXXXXXXOOXOoooo.",
"  .XXXXXXXX.oooOXXXOXXXXXXOoooo.",
"  .XXXXXXXX.oooOOOOXXXXXXOooooo.",
"  .XXXXXXXX.oooOOOOOOOOOOOooooo.",
"  .XXXXXXXX.ooooooooooooooooooo.",
"  .XXXXXXXX.ooooooooooooooooooo.",
"  .X...XXXX.ooooooooooooooooooo.",
"  .X. ..XXX.ooooooooooooooooooo.",
"  .X.   .XX.ooooooooooooooooooo.",
"  .X.    .X.ooo.............ooo.",
"  .X.    .X.oo           .. .oo.",
"   ..    .X.o.           ..  .o.",
"         .X.o.               .o.",
"         .X.o.               .o.",
"         .X.o.               .o.",
"          ..o.               .o.",
"          ....                .."};
