/* XPM */
static char * mini_kbiff_xpm[] = {
"16 16 5 1",
" 	c None",
".	c #000000000000",
"X	c #00000000FFFF",
"o	c #00000000C0C0",
"O	c #FFFFFFFFFFFF",
"   ...........  ",
"  ...XXXXXXXXX. ",
" .ooo.........X.",
" .ooo.X.........",
" .ooo.X.......X.",
" .ooo.XXXXXXXXX.",
" .ooo.XXXXXXXXX.",
" .ooo.XXXOOXOXX.",
" .ooo.XXOOXOXXX.",
" .ooo.XXXXXXXXX.",
" ...o.XXXXXXXXX.",
" .. ..XXXXXXXXX.",
" ..  ...........",
"  .  ..      . .",
"     ..        .",
"     ..        ."};
