/* XPM */
static char *mailpost[] = {
/* width height num_colors chars_per_pixel */
"    16    16        3            1",
/* colors */
". c none",
"# c #070707",
"a c #ffffff",
/* pixels */
"................",
"########........",
"#aaaaaa##.......",
"#aa###a#a#......",
"#aaaaaa#aa#.....",
"#aa#############",
"#aaaa#aaaaaaaaaa",
"#aa####aaaaaaaaa",
"#aaaa#a#aaaaaaaa",
"#aa###aa#aaaaaaa",
"#aaaa#aa##aaaaa#",
"#aa###aa#a#aaa#a",
"#aaaa#a#aaa###aa",
"#aa####aaaaaaaaa",
"#aaaa###########",
"#####..........."
};
SIMPLE  =                    T                                                  BITPIX  =                    8                                                  NAXIS   =                    2                                                  NAXIS1  =      
             16                                                  NAXIS2  =                   16                                                  HISTORY Written by XV 3.10                                                      END                           
                                                                                                                                                                                                                                                               
                                                                                                                                                                                                                                                               
                                                                                                                                                                                                                                                               
                                                                                                                                                                                                                                                               
                                                                                                                                                                                                                                                               
                                                                                                                                                                                                                                                               
                                                                                                                                                                                                                                                               
                                                                                                                                                                                                                                                               
                                                                                                                                                                                                                                                               
                                                                           ÿÿÿÿÿÿÿÿÿÿÿÿÿÿÿÿÿÿÿÿÿÿÿÿÿÿÿÿÿÿÿÿÿÿÿÿÿÿÿÿÿÿÿÿÿÿÿÿÿÿÿÿÿÿÿÿÿÿÿÿÿÿÿÿÿÿÿÿÿÿÿÿÿÿÿÿÿÿÿÿÿÿÿÿÿÿÿÿÿÿÿÿÿÿÿÿÿÿÿ
ÿÿÿÿÿÿÿÿÿÿÿÿÿÿÿ










